 <svg
                    xmlns="http://www.w3.org/2000/svg"
                    width="14"
                    height="18"
                    viewBox="0 0 14 18"
                    fill="none"
                    className="ml-1"
                  >
                    <path
                      d="M4.49998 14H9.49998C9.73609 14 9.93401 13.9201 10.0937 13.7604C10.2535 13.6007 10.3333 13.4028 10.3333 13.1667C10.3333 12.9306 10.2535 12.7326 10.0937 12.5729C9.93401 12.4132 9.73609 12.3333 9.49998 12.3333H4.49998C4.26387 12.3333 4.06595 12.4132 3.90623 12.5729C3.74651 12.7326 3.66665 12.9306 3.66665 13.1667C3.66665 13.4028 3.74651 13.6007 3.90623 13.7604C4.06595 13.9201 4.26387 14 4.49998 14ZM4.49998 10.6667H9.49998C9.73609 10.6667 9.93401 10.5868 10.0937 10.4271C10.2535 10.2674 10.3333 10.0694 10.3333 9.83334C10.3333 9.59723 10.2535 9.39931 10.0937 9.23959C9.93401 9.07987 9.73609 9 9.49998 9H4.49998C4.26387 9 4.06595 9.07987 3.90623 9.23959C3.74651 9.39931 3.66665 9.59723 3.66665 9.83334C3.66665 10.0694 3.74651 10.2674 3.90623 10.4271C4.06595 10.5868 4.26387 10.6667 4.49998 10.6667ZM1.99998 17.3333C1.54165 17.3333 1.14929 17.1701 0.822896 16.8438C0.496507 16.5174 0.333313 16.125 0.333313 15.6667V2.33334C0.333313 1.87501 0.496507 1.48264 0.822896 1.15626C1.14929 0.829866 1.54165 0.666672 1.99998 0.666672H7.97915C8.20137 0.666672 8.41317 0.708338 8.61456 0.791672C8.81595 0.875005 8.99303 0.993061 9.14581 1.14584L13.1875 5.1875C13.3403 5.34028 13.4583 5.51737 13.5416 5.71875C13.625 5.92014 13.6666 6.13195 13.6666 6.35417V15.6667C13.6666 16.125 13.5035 16.5174 13.1771 16.8438C12.8507 17.1701 12.4583 17.3333 12 17.3333H1.99998ZM7.83331 5.66667V2.33334H1.99998V15.6667H12V6.5H8.66665C8.43053 6.5 8.23262 6.42014 8.0729 6.26042C7.91317 6.1007 7.83331 5.90278 7.83331 5.66667Z"
                      fill="white"
                    />
                  </svg>