 <svg
                    width="20"
                    height="20"
                    viewBox="0 0 20 20"
                    fill="none"
                    xmlns="http://www.w3.org/2000/svg"
                  >
                    <path
                      d="M11.6668 17.5V16.125C11.6668 16.0139 11.6877 15.9062 11.7293 15.8021C11.771 15.6979 11.8335 15.6042 11.9168 15.5208L16.271 11.1875C16.396 11.0625 16.5349 10.9722 16.6877 10.9167C16.8404 10.8611 16.9932 10.8333 17.146 10.8333C17.3127 10.8333 17.4724 10.8646 17.6252 10.9271C17.7779 10.9896 17.9168 11.0833 18.0418 11.2083L18.8127 11.9792C18.9238 12.1042 19.0106 12.2431 19.0731 12.3958C19.1356 12.5486 19.1668 12.7014 19.1668 12.8542C19.1668 13.0069 19.1391 13.1632 19.0835 13.3229C19.0279 13.4826 18.9377 13.625 18.8127 13.75L14.4793 18.0833C14.396 18.1667 14.3022 18.2292 14.1981 18.2708C14.0939 18.3125 13.9863 18.3333 13.8752 18.3333H12.5002C12.2641 18.3333 12.0661 18.2535 11.9064 18.0938C11.7467 17.934 11.6668 17.7361 11.6668 17.5ZM12.9168 17.0833H13.7085L16.2293 14.5417L15.4585 13.7708L12.9168 16.2917V17.0833ZM5.00016 18.3333C4.54183 18.3333 4.14947 18.1701 3.82308 17.8438C3.49669 17.5174 3.3335 17.125 3.3335 16.6667V3.33333C3.3335 2.875 3.49669 2.48264 3.82308 2.15625C4.14947 1.82986 4.54183 1.66667 5.00016 1.66667H10.9793C11.2016 1.66667 11.4134 1.70833 11.6147 1.79167C11.8161 1.875 11.9932 1.99306 12.146 2.14583L16.1877 6.1875C16.3404 6.34028 16.4585 6.51736 16.5418 6.71875C16.6252 6.92014 16.6668 7.13195 16.6668 7.35417V8.54167C16.6668 8.77778 16.587 8.9757 16.4272 9.13542C16.2675 9.29514 16.0696 9.375 15.8335 9.375C15.5974 9.375 15.3995 9.29514 15.2397 9.13542C15.08 8.9757 15.0002 8.77778 15.0002 8.54167V7.5H11.6668C11.4307 7.5 11.2328 7.42014 11.0731 7.26042C10.9134 7.1007 10.8335 6.90278 10.8335 6.66667V3.33333H5.00016V16.6667H9.16683C9.40294 16.6667 9.60086 16.7465 9.76058 16.9062C9.9203 17.066 10.0002 17.2639 10.0002 17.5C10.0002 17.7361 9.9203 17.934 9.76058 18.0938C9.60086 18.2535 9.40294 18.3333 9.16683 18.3333H5.00016ZM15.8543 14.1458L15.4585 13.7708L16.2293 14.5417L15.8543 14.1458Z"
                      fill="#ECE9E9"
                    />
                  </svg>