 <svg
                    xmlns="http://www.w3.org/2000/svg"
                    width="20"
                    height="20"
                    viewBox="0 0 20 20"
                    fill="none"
                  >
                    <path
                      d="M10.0001 18.3333C8.8473 18.3333 7.76397 18.1146 6.75008 17.6771C5.73619 17.2396 4.85425 16.6458 4.10425 15.8958C3.35425 15.1458 2.7605 14.2639 2.323 13.25C1.8855 12.2361 1.66675 11.1528 1.66675 10C1.66675 8.84722 1.8855 7.76389 2.323 6.75C2.7605 5.73611 3.35425 4.85416 4.10425 4.10416C4.85425 3.35416 5.73619 2.76041 6.75008 2.32291C7.76397 1.88541 8.8473 1.66666 10.0001 1.66666C10.6667 1.66666 11.3161 1.74305 11.948 1.89583C12.5799 2.04861 13.1876 2.27083 13.7709 2.5625C13.9792 2.67361 14.1147 2.84028 14.1772 3.0625C14.2397 3.28472 14.2015 3.49305 14.0626 3.6875C13.9237 3.88194 13.7397 4.00694 13.5105 4.0625C13.2813 4.11805 13.0556 4.09028 12.8334 3.97916C12.389 3.77083 11.9272 3.61111 11.448 3.5C10.9688 3.38889 10.4862 3.33333 10.0001 3.33333C8.15286 3.33333 6.57994 3.98264 5.28133 5.28125C3.98272 6.57986 3.33341 8.15277 3.33341 10C3.33341 11.8472 3.98272 13.4201 5.28133 14.7187C6.57994 16.0174 8.15286 16.6667 10.0001 16.6667C11.8473 16.6667 13.4202 16.0174 14.7188 14.7187C16.0174 13.4201 16.6667 11.8472 16.6667 10C16.6667 9.88889 16.6633 9.78125 16.6563 9.67708C16.6494 9.57291 16.639 9.46527 16.6251 9.35416C16.5973 9.11805 16.6424 8.89236 16.7605 8.67708C16.8786 8.4618 17.0556 8.31944 17.2917 8.25C17.514 8.18055 17.7223 8.20139 17.9167 8.3125C18.1112 8.42361 18.2223 8.59027 18.2501 8.8125C18.2779 9.00694 18.2987 9.20139 18.3126 9.39583C18.3265 9.59027 18.3334 9.79166 18.3334 10C18.3334 11.1528 18.1147 12.2361 17.6772 13.25C17.2397 14.2639 16.6459 15.1458 15.8959 15.8958C15.1459 16.6458 14.264 17.2396 13.2501 17.6771C12.2362 18.1146 11.1529 18.3333 10.0001 18.3333ZM8.83341 11.5L16.5834 3.72916C16.7362 3.57639 16.9272 3.49653 17.1563 3.48958C17.3855 3.48264 17.5834 3.5625 17.7501 3.72916C17.9029 3.88194 17.9792 4.07639 17.9792 4.3125C17.9792 4.54861 17.9029 4.74305 17.7501 4.89583L9.41675 13.25C9.25008 13.4167 9.05564 13.5 8.83341 13.5C8.61119 13.5 8.41675 13.4167 8.25008 13.25L5.87508 10.875C5.7223 10.7222 5.64591 10.5278 5.64591 10.2917C5.64591 10.0556 5.7223 9.86111 5.87508 9.70833C6.02786 9.55555 6.2223 9.47916 6.45841 9.47916C6.69453 9.47916 6.88897 9.55555 7.04175 9.70833L8.83341 11.5Z"
                      fill="#ECE9E9"
                    />
                  </svg>