<svg width="22" height="22" viewBox="0 0 22 22" fill="none" xmlns="http://www.w3.org/2000/svg">
<path d="M11.9167 7.33333V3.66667C11.9167 3.40694 12.0045 3.18924 12.1802 3.01354C12.3559 2.83785 12.5736 2.75 12.8333 2.75H18.3333C18.5931 2.75 18.8108 2.83785 18.9865 3.01354C19.1622 3.18924 19.25 3.40694 19.25 3.66667V7.33333C19.25 7.59306 19.1622 7.81076 18.9865 7.98646C18.8108 8.16215 18.5931 8.25 18.3333 8.25H12.8333C12.5736 8.25 12.3559 8.16215 12.1802 7.98646C12.0045 7.81076 11.9167 7.59306 11.9167 7.33333ZM2.75 11V3.66667C2.75 3.40694 2.83785 3.18924 3.01354 3.01354C3.18924 2.83785 3.40694 2.75 3.66667 2.75H9.16667C9.42639 2.75 9.6441 2.83785 9.81979 3.01354C9.99549 3.18924 10.0833 3.40694 10.0833 3.66667V11C10.0833 11.2597 9.99549 11.4774 9.81979 11.6531C9.6441 11.8288 9.42639 11.9167 9.16667 11.9167H3.66667C3.40694 11.9167 3.18924 11.8288 3.01354 11.6531C2.83785 11.4774 2.75 11.2597 2.75 11ZM11.9167 18.3333V11C11.9167 10.7403 12.0045 10.5226 12.1802 10.3469C12.3559 10.1712 12.5736 10.0833 12.8333 10.0833H18.3333C18.5931 10.0833 18.8108 10.1712 18.9865 10.3469C19.1622 10.5226 19.25 10.7403 19.25 11V18.3333C19.25 18.5931 19.1622 18.8108 18.9865 18.9865C18.8108 19.1622 18.5931 19.25 18.3333 19.25H12.8333C12.5736 19.25 12.3559 19.1622 12.1802 18.9865C12.0045 18.8108 11.9167 18.5931 11.9167 18.3333ZM2.75 18.3333V14.6667C2.75 14.4069 2.83785 14.1892 3.01354 14.0135C3.18924 13.8378 3.40694 13.75 3.66667 13.75H9.16667C9.42639 13.75 9.6441 13.8378 9.81979 14.0135C9.99549 14.1892 10.0833 14.4069 10.0833 14.6667V18.3333C10.0833 18.5931 9.99549 18.8108 9.81979 18.9865C9.6441 19.1622 9.42639 19.25 9.16667 19.25H3.66667C3.40694 19.25 3.18924 19.1622 3.01354 18.9865C2.83785 18.8108 2.75 18.5931 2.75 18.3333ZM4.58333 10.0833H8.25V4.58333H4.58333V10.0833ZM13.75 17.4167H17.4167V11.9167H13.75V17.4167ZM13.75 6.41667H17.4167V4.58333H13.75V6.41667ZM4.58333 17.4167H8.25V15.5833H4.58333V17.4167Z" fill="#1D2532"/>
</svg>
