<svg width="80" height="80" viewBox="0 0 80 80" fill="none" xmlns="http://www.w3.org/2000/svg">
<g clip-path="url(#clip0_18_7297)">
<path d="M27.3429 5.76675e-06C31.5995 -0.0109451 35.8561 -0.0192108 40.1128 -0.0242812C42.0892 -0.0266981 44.0656 -0.0299931 46.0421 -0.0353565C47.7648 -0.0400291 49.4874 -0.0430529 51.2101 -0.0440982C52.1223 -0.0447092 53.0344 -0.046145 53.9465 -0.0495552C54.8052 -0.0527398 55.664 -0.0537177 56.5227 -0.0530135C56.8376 -0.0531423 57.1526 -0.0540728 57.4675 -0.0558718C57.8982 -0.0582109 58.3287 -0.0576406 58.7594 -0.0563635C58.8834 -0.0577289 59.0074 -0.0590943 59.1352 -0.0605011C60.4193 -0.0502394 61.4244 0.357038 62.3697 1.23536C63.3767 2.38858 63.6121 3.66336 63.613 5.1549C63.6133 5.26161 63.6135 5.36832 63.6138 5.47827C63.6145 5.83564 63.6142 6.19301 63.6138 6.55039C63.6141 6.80928 63.6144 7.06818 63.6149 7.32708C63.6158 8.0384 63.6158 8.74973 63.6156 9.46106C63.6156 10.2283 63.6164 10.9955 63.6172 11.7627C63.6185 13.2657 63.6189 14.7688 63.619 16.2719C63.6191 17.4935 63.6194 18.7152 63.6199 19.9369C63.6213 23.4001 63.622 26.8633 63.6219 30.3266C63.6218 30.6066 63.6218 30.6066 63.6218 30.8924C63.6218 31.0793 63.6218 31.2663 63.6218 31.4589C63.6218 34.4891 63.6233 37.5192 63.6255 40.5494C63.6277 43.6603 63.6288 46.7713 63.6286 49.8822C63.6286 51.6289 63.629 53.3756 63.6307 55.1224C63.6321 56.6095 63.6325 58.0966 63.6314 59.5837C63.6309 60.3424 63.6309 61.1011 63.6322 61.8598C63.6335 62.5547 63.6333 63.2495 63.6319 63.9443C63.6316 64.1954 63.6319 64.4465 63.6328 64.6975C63.6389 66.5806 63.6195 68.1949 62.3429 69.6875C60.8151 71.0867 59.2691 71.1173 57.2877 71.1146C56.996 71.1152 56.996 71.1152 56.6985 71.1157C56.1606 71.1165 55.6227 71.1167 55.0848 71.1165C54.504 71.1164 53.9232 71.1173 53.3424 71.118C52.2052 71.1193 51.0679 71.1198 49.9307 71.1199C49.0061 71.1199 48.0815 71.1203 47.1569 71.1208C44.5341 71.1221 41.9113 71.1228 39.2885 71.1227C39.0765 71.1227 39.0765 71.1227 38.8603 71.1227C38.7188 71.1227 38.5773 71.1227 38.4315 71.1227C36.1385 71.1226 33.8455 71.1241 31.5526 71.1263C29.1968 71.1286 26.841 71.1296 24.4853 71.1295C23.1632 71.1295 21.8412 71.1299 20.5192 71.1316C19.3936 71.133 18.268 71.1333 17.1424 71.1323C16.5684 71.1318 15.9945 71.1318 15.4206 71.1331C14.7975 71.1346 14.1745 71.1336 13.5514 71.1324C13.3713 71.1332 13.1911 71.134 13.0055 71.1348C11.2353 71.1273 9.78323 70.951 8.44518 69.7205C7.23059 68.4449 7.11729 67.0897 7.13027 65.3832C7.12987 65.1893 7.12947 64.9954 7.12906 64.7957C7.12842 64.2608 7.12988 63.726 7.13223 63.1912C7.13427 62.6132 7.13357 62.0351 7.13322 61.4571C7.13297 60.4568 7.13444 59.4565 7.13708 58.4561C7.14089 57.0098 7.14211 55.5636 7.1427 54.1172C7.14372 51.7705 7.14684 49.4237 7.15128 47.077C7.15558 44.7979 7.1589 42.5188 7.16089 40.2397C7.16101 40.0991 7.16114 39.9585 7.16126 39.8137C7.16188 39.1084 7.16247 38.4031 7.16305 37.6979C7.16791 31.8507 7.17616 26.0035 7.18664 20.1563C7.37109 20.1553 7.55554 20.1544 7.74558 20.1535C9.48806 20.1445 11.2305 20.1331 12.973 20.1194C13.8687 20.1124 14.7644 20.1063 15.6601 20.1021C16.5253 20.098 17.3905 20.0917 18.2557 20.0839C18.5849 20.0813 18.9142 20.0795 19.2435 20.0785C19.7065 20.077 20.1693 20.0726 20.6323 20.0676C20.7669 20.0678 20.9016 20.068 21.0403 20.0682C22.618 20.0442 24.0591 19.5621 25.3116 18.5938C25.7342 18.1575 26.0772 17.6977 26.4054 17.1875C26.4696 17.0878 26.5339 16.9881 26.6001 16.8854C27.6213 15.0861 27.3844 12.7983 27.3734 10.8032C27.3728 10.4906 27.3724 10.178 27.3721 9.86541C27.3709 9.04857 27.3678 8.23175 27.3643 7.41492C27.3611 6.57903 27.3597 5.74313 27.3581 4.90723C27.3548 3.27148 27.3495 1.63575 27.3429 5.76675e-06ZM19.0909 30.7617C18.8429 31.2055 18.7691 31.5211 18.7491 32.0313C19.0002 32.8401 19.288 33.2878 19.9991 33.75C20.578 33.9429 21.1134 33.9289 21.7162 33.9282C21.8448 33.9287 21.9734 33.9291 22.106 33.9296C22.5385 33.931 22.971 33.9312 23.4036 33.9314C23.7131 33.9322 24.0226 33.9329 24.3321 33.9338C25.174 33.9358 26.016 33.9368 26.8579 33.9375C27.3837 33.938 27.9095 33.9386 28.4354 33.9393C30.0799 33.9415 31.7244 33.943 33.3689 33.9436C35.2684 33.9443 37.1679 33.947 39.0674 33.9516C40.5349 33.9549 42.0024 33.9565 43.4699 33.9567C44.3467 33.9569 45.2235 33.9578 46.1003 33.9606C46.9251 33.9632 47.7499 33.9635 48.5746 33.9621C48.8773 33.962 49.1801 33.9627 49.4828 33.9642C49.8961 33.9662 50.3093 33.9653 50.7226 33.9637C50.9022 33.9656 50.9022 33.9656 51.0855 33.9675C52.0207 33.9589 52.6495 33.7386 53.3292 33.0957C53.6672 32.5324 53.8021 32.0641 53.7491 31.4063C53.3812 30.6408 52.9234 30.2498 52.1866 29.8438C51.7275 29.7846 51.3281 29.7591 50.8701 29.7644C50.7398 29.7634 50.6095 29.7624 50.4753 29.7614C50.0398 29.7589 49.6045 29.7609 49.1691 29.7629C48.8564 29.762 48.5438 29.7609 48.2311 29.7596C47.3827 29.7567 46.5344 29.7578 45.686 29.7598C44.798 29.7614 43.9101 29.7599 43.0222 29.7589C41.5311 29.7578 40.04 29.7593 38.5489 29.7623C36.8251 29.7657 35.1013 29.7646 33.3775 29.7611C31.8974 29.7583 30.4173 29.7579 28.9371 29.7595C28.0532 29.7605 27.1692 29.7606 26.2852 29.7586C25.4542 29.7568 24.6231 29.758 23.7921 29.7616C23.4871 29.7625 23.1821 29.7622 22.8771 29.7608C22.4607 29.7591 22.0445 29.7613 21.6282 29.7644C21.5075 29.763 21.3869 29.7616 21.2625 29.7602C20.3101 29.774 19.7445 30.0856 19.0909 30.7617ZM19.4132 41.7676C18.9374 42.3359 18.7317 42.6897 18.7784 43.4375C18.9677 44.1362 19.1537 44.5493 19.7779 44.9407C20.4105 45.1962 20.9633 45.222 21.6341 45.2168C21.8305 45.2181 21.8305 45.2181 22.0309 45.2194C22.4685 45.2216 22.906 45.2205 23.3436 45.2194C23.6578 45.2203 23.9719 45.2214 24.2861 45.2226C25.1387 45.2254 25.9913 45.2253 26.8439 45.2244C27.5556 45.2239 28.2674 45.2248 28.9792 45.2258C30.6582 45.228 32.3371 45.2277 34.0161 45.2259C35.7484 45.2242 37.4808 45.2264 39.2131 45.2305C40.7005 45.234 42.1879 45.235 43.6753 45.2341C44.5637 45.2336 45.452 45.234 46.3404 45.2367C47.1755 45.2391 48.0107 45.2385 48.8458 45.2355C49.1523 45.2349 49.4588 45.2354 49.7653 45.2371C50.1838 45.2391 50.602 45.2373 51.0204 45.2346C51.2023 45.2368 51.2023 45.2368 51.3879 45.2391C52.1974 45.2281 52.6583 45.045 53.2804 44.5313C53.6569 43.9969 53.7878 43.6014 53.7394 42.959C53.6346 42.3568 53.4039 41.9985 52.9679 41.5625C52.1733 41.0328 51.3868 41.0709 50.4557 41.0729C50.2662 41.0723 50.2662 41.0723 50.0729 41.0718C49.65 41.0708 49.227 41.0709 48.8041 41.0711C48.5007 41.0706 48.1973 41.0701 47.8939 41.0695C47.0701 41.0681 46.2462 41.0677 45.4224 41.0676C44.7347 41.0675 44.047 41.0669 43.3593 41.0663C41.737 41.0651 40.1148 41.0647 38.4925 41.0648C36.8187 41.0649 35.1448 41.0632 33.471 41.0608C32.034 41.0587 30.597 41.0579 29.16 41.058C28.3017 41.058 27.4434 41.0576 26.5851 41.0559C25.7781 41.0544 24.971 41.0544 24.1639 41.0555C23.8678 41.0557 23.5716 41.0553 23.2754 41.0544C22.8711 41.0532 22.4667 41.0539 22.0624 41.0551C21.9453 41.0543 21.8282 41.0535 21.7075 41.0527C20.7932 41.0587 20.1204 41.1729 19.4132 41.7676ZM19.1556 52.6245C18.7845 53.3668 18.6407 53.8623 18.9054 54.6875C19.3264 55.186 19.7936 55.7353 20.4716 55.8215C20.654 55.8222 20.654 55.8222 20.8402 55.823C21.0501 55.825 21.0501 55.825 21.2643 55.8271C21.4175 55.8269 21.5706 55.8268 21.7285 55.8266C21.9709 55.8282 21.9709 55.8282 22.2182 55.8298C22.754 55.8328 23.2897 55.8334 23.8254 55.8337C24.1974 55.8347 24.5693 55.8358 24.9412 55.8369C25.7216 55.8388 26.5019 55.8393 27.2823 55.8392C28.2822 55.8391 29.282 55.8434 30.2819 55.8488C31.0503 55.8523 31.8188 55.8529 32.5873 55.8527C32.9559 55.8531 33.3245 55.8545 33.6931 55.8569C34.2089 55.8599 34.7246 55.8591 35.2404 55.8572C35.3926 55.8589 35.5449 55.8607 35.7017 55.8625C36.5874 55.8543 37.1157 55.7602 37.8116 55.1563C38.1881 54.6219 38.319 54.2264 38.2706 53.584C38.1645 52.9808 37.9434 52.6191 37.4991 52.1875C37.0403 51.9113 36.7023 51.8357 36.1695 51.8343C36.0291 51.8332 35.8887 51.8321 35.7441 51.8309C35.5148 51.8315 35.5148 51.8315 35.2809 51.8321C35.119 51.8313 34.957 51.8305 34.7902 51.8297C34.2546 51.8275 33.719 51.8276 33.1833 51.828C32.8113 51.8274 32.4392 51.8267 32.0671 51.826C31.287 51.8248 30.507 51.8249 29.7269 51.8257C28.7268 51.8266 27.7268 51.8239 26.7267 51.8203C25.9583 51.818 25.1898 51.8179 24.4213 51.8184C24.0526 51.8183 23.6839 51.8175 23.3151 51.8159C22.7997 51.814 22.2843 51.815 21.7689 51.8168C21.6163 51.8156 21.4638 51.8144 21.3066 51.8132C20.4093 51.8202 19.7438 51.8688 19.1556 52.6245Z" fill="#333B48"/>
<path d="M65.9368 8.90626C66.3356 8.90334 66.7343 8.90122 67.1331 8.89954C67.3012 8.89819 67.3012 8.89819 67.4726 8.89681C69.0935 8.89171 70.3361 9.16018 71.5533 10.2795C72.926 11.7212 72.8797 13.3552 72.8713 15.2361C72.8719 15.4993 72.8726 15.7624 72.8736 16.0256C72.8755 16.7466 72.8745 17.4675 72.8731 18.1885C72.872 18.9669 72.8737 19.7452 72.875 20.5236C72.877 22.0476 72.8766 23.5716 72.8752 25.0956C72.8742 26.3342 72.874 27.5729 72.8745 28.8115C72.8746 28.9879 72.8747 29.1642 72.8748 29.3459C72.8749 29.7041 72.8751 30.0623 72.8752 30.4205C72.8765 33.7791 72.875 37.1377 72.8725 40.4962C72.8704 43.3777 72.8708 46.2591 72.8729 49.1405C72.8754 52.4871 72.8764 55.8337 72.875 59.1803C72.8748 59.5372 72.8747 59.8941 72.8745 60.251C72.8745 60.4266 72.8744 60.6022 72.8743 60.7831C72.8739 62.0202 72.8746 63.2573 72.8757 64.4943C72.877 66.002 72.8767 67.5097 72.8742 69.0174C72.8729 69.7866 72.8724 70.5557 72.874 71.3249C72.8754 72.0292 72.8746 72.7335 72.8721 73.4379C72.8716 73.6924 72.8719 73.947 72.873 74.2015C72.8799 75.8646 72.8834 77.3452 71.6985 78.6426C71.5886 78.7677 71.4786 78.8928 71.3653 79.0216C70.1717 80.006 68.9882 80.0903 67.4835 80.0783C67.2803 80.0792 67.0771 80.0801 66.8677 80.0809C66.3068 80.0832 65.7459 80.0817 65.1849 80.0794C64.5788 80.0777 63.9726 80.0796 63.3665 80.081C62.1803 80.0831 60.9942 80.082 59.808 80.0796C58.426 80.077 57.0441 80.0775 55.6622 80.0781C53.1962 80.079 50.7303 80.0768 48.2643 80.0729C45.8725 80.0692 43.4807 80.0681 41.0889 80.0697C38.483 80.0715 35.877 80.0718 33.2711 80.0695C32.9931 80.0693 32.7151 80.0691 32.4372 80.0688C32.2321 80.0686 32.2321 80.0686 32.0228 80.0685C31.0599 80.0677 30.097 80.068 29.1342 80.0687C27.9606 80.0695 26.787 80.0685 25.6134 80.0654C25.0149 80.0639 24.4163 80.0631 23.8177 80.0643C23.1685 80.0656 22.5194 80.0633 21.8702 80.0606C21.6815 80.0615 21.4928 80.0625 21.2983 80.0634C19.7119 80.0515 18.6731 79.7346 17.4969 78.6334C16.4987 77.4997 16.38 76.1635 16.3958 74.7168C16.3969 74.5321 16.3969 74.5321 16.3979 74.3436C16.3998 74.0415 16.4026 73.7395 16.4056 73.4375C16.4955 73.4373 16.5854 73.4371 16.6781 73.4369C22.0121 73.4243 27.346 73.41 32.68 73.3938C33.3209 73.3918 33.9617 73.3899 34.6026 73.3879C34.794 73.3873 34.794 73.3873 34.9892 73.3868C37.0533 73.3806 39.1174 73.3754 41.1815 73.3707C43.3005 73.3659 45.4194 73.3598 47.5384 73.3527C48.8452 73.3484 50.152 73.3449 51.4589 73.3426C52.3558 73.341 53.2527 73.3382 54.1496 73.3345C54.6666 73.3324 55.1836 73.331 55.7005 73.3306C56.2624 73.3301 56.8242 73.3277 57.386 73.3248C57.6284 73.3252 57.6284 73.3252 57.8757 73.3257C60.2621 73.3074 62.3163 72.7939 64.0618 71.0938C65.3115 69.6054 65.7977 67.9101 65.8022 65.9889C65.8031 65.7843 65.8039 65.5796 65.8048 65.3688C65.805 65.1435 65.8051 64.9183 65.8053 64.6931C65.806 64.4524 65.8068 64.2117 65.8076 63.971C65.8097 63.3107 65.8109 62.6505 65.8119 61.9903C65.8132 61.2778 65.8153 60.5654 65.8173 59.853C65.8207 58.619 65.8236 57.3851 65.826 56.1511C65.8296 54.367 65.834 52.5829 65.8386 50.7989C65.846 47.9043 65.8528 45.0097 65.8591 42.1151C65.8653 39.3033 65.8717 36.4916 65.8786 33.6799C65.8793 33.4199 65.8793 33.4199 65.8799 33.1546C65.8821 32.285 65.8842 31.4155 65.8864 30.5459C65.9042 23.3327 65.9208 16.1195 65.9368 8.90626Z" fill="#333B48"/>
<path d="M24.0625 0.15625C24.5312 0.546875 24.5312 0.546875 24.8438 0.9375C24.9211 1.01484 24.9211 1.01484 25 1.09375C25.0182 1.52458 25.0263 1.95154 25.0277 2.38255C25.0287 2.51772 25.0297 2.65289 25.0308 2.79217C25.0339 3.24186 25.0357 3.69154 25.0372 4.14124C25.0379 4.29468 25.0385 4.44812 25.0392 4.60621C25.0424 5.41915 25.0447 6.23208 25.0461 7.04502C25.0478 7.88375 25.0532 8.72241 25.0594 9.56112C25.0635 10.2066 25.0648 10.852 25.0654 11.4974C25.0661 11.8065 25.068 12.1155 25.0709 12.4245C25.0747 12.8584 25.0745 13.2921 25.0734 13.7259C25.0754 13.8527 25.0774 13.9794 25.0795 14.11C25.0703 15.1305 24.7742 15.9327 24.1132 16.7169C24.0288 16.7852 23.9444 16.8535 23.8574 16.9238C23.7742 16.9941 23.6911 17.0644 23.6053 17.1368C22.6755 17.7305 21.912 17.8819 20.8303 17.8756C20.6991 17.8767 20.5679 17.8778 20.4326 17.8789C20.0017 17.8817 19.5709 17.8811 19.14 17.8802C18.839 17.881 18.5381 17.8818 18.2371 17.8827C17.6076 17.8841 16.9781 17.8838 16.3486 17.8822C15.5428 17.8804 14.7371 17.8836 13.9313 17.8881C13.3103 17.891 12.6892 17.8909 12.0682 17.8901C11.7711 17.89 11.474 17.891 11.1769 17.8929C10.7615 17.8952 10.3462 17.8936 9.93069 17.8909C9.80866 17.8924 9.68664 17.8939 9.56092 17.8955C8.75425 17.8846 8.29715 17.7179 7.65625 17.1875C7.28011 16.6536 7.19192 16.3163 7.14844 15.6641C7.50179 13.7898 10.4004 11.7581 11.6913 10.4645C11.9022 10.2529 11.9022 10.2529 12.1174 10.037C12.7836 9.36869 13.4502 8.70062 14.1172 8.03302C14.8836 7.26587 15.649 6.49769 16.4136 5.72864C17.0794 5.05903 17.7465 4.39072 18.4141 3.72287C18.6967 3.43974 18.979 3.15623 19.2609 2.87231C19.6542 2.47632 20.049 2.08182 20.4441 1.68766C20.6177 1.51197 20.6177 1.51197 20.7947 1.33273C21.7844 0.351012 22.6435 -0.282781 24.0625 0.15625Z" fill="#333B48"/>
</g>
<defs>
<clipPath id="clip0_18_7297">
<rect width="80" height="80" fill="white"/>
</clipPath>
</defs>
</svg>
